<svg xmlns="http://www.w3.org/2000/svg" width="1200" height="630" viewBox="0 0 1200 630" role="img" aria-label="Happy Place Carpentry">
  <defs>
    <linearGradient id="g" x1="0" y1="0" x2="0.7" y2="1">
      <stop offset="0" stop-color="#EDEAE0"/>
      <stop offset="1" stop-color="#E9DBC9"/>
    </linearGradient>
  </defs>
  <rect width="1200" height="630" fill="url(#g)"/>
  <rect x="0" y="0" width="1200" height="31" fill="#9c7a52" opacity="0.05"/><line x1="0" y1="0" x2="1200" y2="0" stroke="#000" stroke-opacity="0.04"/><rect x="0" y="31" width="1200" height="31" fill="#9c7a52" opacity="0.07"/><line x1="0" y1="31" x2="1200" y2="31" stroke="#000" stroke-opacity="0.04"/><rect x="0" y="62" width="1200" height="31" fill="#9c7a52" opacity="0.09"/><line x1="0" y1="62" x2="1200" y2="62" stroke="#000" stroke-opacity="0.04"/><rect x="0" y="93" width="1200" height="31" fill="#9c7a52" opacity="0.05"/><line x1="0" y1="93" x2="1200" y2="93" stroke="#000" stroke-opacity="0.04"/><rect x="0" y="124" width="1200" height="31" fill="#9c7a52" opacity="0.07"/><line x1="0" y1="124" x2="1200" y2="124" stroke="#000" stroke-opacity="0.04"/><rect x="0" y="155" width="1200" height="31" fill="#9c7a52" opacity="0.09"/><line x1="0" y1="155" x2="1200" y2="155" stroke="#000" stroke-opacity="0.04"/><rect x="0" y="186" width="1200" height="31" fill="#9c7a52" opacity="0.05"/><line x1="0" y1="186" x2="1200" y2="186" stroke="#000" stroke-opacity="0.04"/><rect x="0" y="217" width="1200" height="31" fill="#9c7a52" opacity="0.07"/><line x1="0" y1="217" x2="1200" y2="217" stroke="#000" stroke-opacity="0.04"/><rect x="0" y="248" width="1200" height="31" fill="#9c7a52" opacity="0.09"/><line x1="0" y1="248" x2="1200" y2="248" stroke="#000" stroke-opacity="0.04"/><rect x="0" y="279" width="1200" height="31" fill="#9c7a52" opacity="0.05"/><line x1="0" y1="279" x2="1200" y2="279" stroke="#000" stroke-opacity="0.04"/><rect x="0" y="310" width="1200" height="31" fill="#9c7a52" opacity="0.07"/><line x1="0" y1="310" x2="1200" y2="310" stroke="#000" stroke-opacity="0.04"/><rect x="0" y="341" width="1200" height="31" fill="#9c7a52" opacity="0.09"/><line x1="0" y1="341" x2="1200" y2="341" stroke="#000" stroke-opacity="0.04"/><rect x="0" y="372" width="1200" height="31" fill="#9c7a52" opacity="0.05"/><line x1="0" y1="372" x2="1200" y2="372" stroke="#000" stroke-opacity="0.04"/><rect x="0" y="403" width="1200" height="31" fill="#9c7a52" opacity="0.07"/><line x1="0" y1="403" x2="1200" y2="403" stroke="#000" stroke-opacity="0.04"/><rect x="0" y="434" width="1200" height="31" fill="#9c7a52" opacity="0.09"/><line x1="0" y1="434" x2="1200" y2="434" stroke="#000" stroke-opacity="0.04"/><rect x="0" y="465" width="1200" height="31" fill="#9c7a52" opacity="0.05"/><line x1="0" y1="465" x2="1200" y2="465" stroke="#000" stroke-opacity="0.04"/><rect x="0" y="496" width="1200" height="31" fill="#9c7a52" opacity="0.07"/><line x1="0" y1="496" x2="1200" y2="496" stroke="#000" stroke-opacity="0.04"/><rect x="0" y="527" width="1200" height="31" fill="#9c7a52" opacity="0.09"/><line x1="0" y1="527" x2="1200" y2="527" stroke="#000" stroke-opacity="0.04"/><rect x="0" y="558" width="1200" height="31" fill="#9c7a52" opacity="0.05"/><line x1="0" y1="558" x2="1200" y2="558" stroke="#000" stroke-opacity="0.04"/><rect x="0" y="589" width="1200" height="31" fill="#9c7a52" opacity="0.07"/><line x1="0" y1="589" x2="1200" y2="589" stroke="#000" stroke-opacity="0.04"/><rect x="0" y="620" width="1200" height="31" fill="#9c7a52" opacity="0.09"/><line x1="0" y1="620" x2="1200" y2="620" stroke="#000" stroke-opacity="0.04"/>
  <circle cx="960" cy="126" r="284" fill="#d99a4e" opacity="0.12"/>
  <rect x="72" y="517" width="192" height="14" rx="7" fill="#d99a4e" opacity="0.9"/>
  <text x="72" y="315" font-family="Georgia, serif" font-size="45" font-weight="700" fill="#162b29">Happy Place Carpentry</text>
  <text x="72" y="369" font-family="Arial, sans-serif" font-size="24" fill="#B0A092">Custom carpentry, Oregon</text>
  <text x="72" y="586" font-family="Arial, sans-serif" font-size="21" fill="#d99a4e" font-weight="700">Happy Place Carpentry</text>
</svg>