<svg xmlns="http://www.w3.org/2000/svg" width="800" height="600" viewBox="0 0 800 600" role="img" aria-label="Fences">
  <defs>
    <linearGradient id="g" x1="0" y1="0" x2="0.7" y2="1">
      <stop offset="0" stop-color="#EDEAE0"/>
      <stop offset="1" stop-color="#E9DBC9"/>
    </linearGradient>
  </defs>
  <rect width="800" height="600" fill="url(#g)"/>
  <rect x="0" y="0" width="800" height="30" fill="#9c7a52" opacity="0.05"/><line x1="0" y1="0" x2="800" y2="0" stroke="#000" stroke-opacity="0.04"/><rect x="0" y="30" width="800" height="30" fill="#9c7a52" opacity="0.07"/><line x1="0" y1="30" x2="800" y2="30" stroke="#000" stroke-opacity="0.04"/><rect x="0" y="60" width="800" height="30" fill="#9c7a52" opacity="0.09"/><line x1="0" y1="60" x2="800" y2="60" stroke="#000" stroke-opacity="0.04"/><rect x="0" y="90" width="800" height="30" fill="#9c7a52" opacity="0.05"/><line x1="0" y1="90" x2="800" y2="90" stroke="#000" stroke-opacity="0.04"/><rect x="0" y="120" width="800" height="30" fill="#9c7a52" opacity="0.07"/><line x1="0" y1="120" x2="800" y2="120" stroke="#000" stroke-opacity="0.04"/><rect x="0" y="150" width="800" height="30" fill="#9c7a52" opacity="0.09"/><line x1="0" y1="150" x2="800" y2="150" stroke="#000" stroke-opacity="0.04"/><rect x="0" y="180" width="800" height="30" fill="#9c7a52" opacity="0.05"/><line x1="0" y1="180" x2="800" y2="180" stroke="#000" stroke-opacity="0.04"/><rect x="0" y="210" width="800" height="30" fill="#9c7a52" opacity="0.07"/><line x1="0" y1="210" x2="800" y2="210" stroke="#000" stroke-opacity="0.04"/><rect x="0" y="240" width="800" height="30" fill="#9c7a52" opacity="0.09"/><line x1="0" y1="240" x2="800" y2="240" stroke="#000" stroke-opacity="0.04"/><rect x="0" y="270" width="800" height="30" fill="#9c7a52" opacity="0.05"/><line x1="0" y1="270" x2="800" y2="270" stroke="#000" stroke-opacity="0.04"/><rect x="0" y="300" width="800" height="30" fill="#9c7a52" opacity="0.07"/><line x1="0" y1="300" x2="800" y2="300" stroke="#000" stroke-opacity="0.04"/><rect x="0" y="330" width="800" height="30" fill="#9c7a52" opacity="0.09"/><line x1="0" y1="330" x2="800" y2="330" stroke="#000" stroke-opacity="0.04"/><rect x="0" y="360" width="800" height="30" fill="#9c7a52" opacity="0.05"/><line x1="0" y1="360" x2="800" y2="360" stroke="#000" stroke-opacity="0.04"/><rect x="0" y="390" width="800" height="30" fill="#9c7a52" opacity="0.07"/><line x1="0" y1="390" x2="800" y2="390" stroke="#000" stroke-opacity="0.04"/><rect x="0" y="420" width="800" height="30" fill="#9c7a52" opacity="0.09"/><line x1="0" y1="420" x2="800" y2="420" stroke="#000" stroke-opacity="0.04"/><rect x="0" y="450" width="800" height="30" fill="#9c7a52" opacity="0.05"/><line x1="0" y1="450" x2="800" y2="450" stroke="#000" stroke-opacity="0.04"/><rect x="0" y="480" width="800" height="30" fill="#9c7a52" opacity="0.07"/><line x1="0" y1="480" x2="800" y2="480" stroke="#000" stroke-opacity="0.04"/><rect x="0" y="510" width="800" height="30" fill="#9c7a52" opacity="0.09"/><line x1="0" y1="510" x2="800" y2="510" stroke="#000" stroke-opacity="0.04"/><rect x="0" y="540" width="800" height="30" fill="#9c7a52" opacity="0.05"/><line x1="0" y1="540" x2="800" y2="540" stroke="#000" stroke-opacity="0.04"/><rect x="0" y="570" width="800" height="30" fill="#9c7a52" opacity="0.07"/><line x1="0" y1="570" x2="800" y2="570" stroke="#000" stroke-opacity="0.04"/>
  <circle cx="640" cy="120" r="270" fill="#d99a4e" opacity="0.12"/>
  <rect x="48" y="492" width="128" height="13" rx="7" fill="#d99a4e" opacity="0.9"/>
  <text x="48" y="300" font-family="Georgia, serif" font-size="43" font-weight="700" fill="#162b29">Fences</text>
  <text x="48" y="351" font-family="Arial, sans-serif" font-size="23" fill="#B0A092">Privacy & curb appeal</text>
  <text x="48" y="558" font-family="Arial, sans-serif" font-size="20" fill="#d99a4e" font-weight="700">Happy Place Carpentry</text>
</svg>