<svg xmlns="http://www.w3.org/2000/svg" width="800" height="600" viewBox="0 0 800 600" role="img" aria-label="Fences & Gates">
  <defs><linearGradient id="g" x1="0" y1="0" x2="0.6" y2="1"><stop offset="0" stop-color="#EDEAE0"/><stop offset="1" stop-color="#E9DBC9"/></linearGradient></defs>
  <rect width="800" height="600" fill="url(#g)"/>
  <circle cx="640" cy="120" r="204" fill="#d99a4e" opacity="0.22"/>
  <rect x="40" y="180" width="24" height="192" fill="#9c7a52"/><rect x="102" y="180" width="24" height="192" fill="#9c7a52"/><rect x="165" y="180" width="24" height="192" fill="#9c7a52"/><rect x="227" y="180" width="24" height="192" fill="#9c7a52"/><rect x="290" y="180" width="24" height="192" fill="#9c7a52"/><rect x="352" y="180" width="24" height="192" fill="#9c7a52"/><rect x="414" y="180" width="24" height="192" fill="#9c7a52"/><rect x="477" y="180" width="24" height="192" fill="#9c7a52"/><rect x="539" y="180" width="24" height="192" fill="#9c7a52"/><rect x="602" y="180" width="24" height="192" fill="#9c7a52"/><rect x="664" y="180" width="24" height="192" fill="#9c7a52"/><rect x="726" y="180" width="24" height="192" fill="#9c7a52"/><rect x="32" y="180" width="736" height="15" fill="#7c5a3a"/><rect x="32" y="330" width="736" height="15" fill="#7c5a3a"/>
  <text x="48" y="516" font-family="Georgia, serif" font-size="43" font-weight="700" fill="#2b2620">Fences & Gates</text>
  <text x="48" y="559" font-family="Arial, sans-serif" font-size="18" fill="rgba(43,38,32,0.62)"></text>
</svg>