<svg xmlns="http://www.w3.org/2000/svg" width="1200" height="900" viewBox="0 0 1200 900" role="img" aria-label="Cedar Fence">
  <defs><linearGradient id="g" x1="0" y1="0" x2="0.6" y2="1"><stop offset="0" stop-color="#EDEAE0"/><stop offset="1" stop-color="#E9DBC9"/></linearGradient></defs>
  <rect width="1200" height="900" fill="url(#g)"/>
  <circle cx="960" cy="180" r="306" fill="#d99a4e" opacity="0.22"/>
  <rect x="60" y="270" width="36" height="288" fill="#9c7a52"/><rect x="154" y="270" width="36" height="288" fill="#9c7a52"/><rect x="247" y="270" width="36" height="288" fill="#9c7a52"/><rect x="341" y="270" width="36" height="288" fill="#9c7a52"/><rect x="434" y="270" width="36" height="288" fill="#9c7a52"/><rect x="528" y="270" width="36" height="288" fill="#9c7a52"/><rect x="622" y="270" width="36" height="288" fill="#9c7a52"/><rect x="715" y="270" width="36" height="288" fill="#9c7a52"/><rect x="809" y="270" width="36" height="288" fill="#9c7a52"/><rect x="902" y="270" width="36" height="288" fill="#9c7a52"/><rect x="996" y="270" width="36" height="288" fill="#9c7a52"/><rect x="1090" y="270" width="36" height="288" fill="#9c7a52"/><rect x="48" y="270" width="1104" height="22" fill="#7c5a3a"/><rect x="48" y="495" width="1104" height="22" fill="#7c5a3a"/>
  <text x="72" y="774" font-family="Georgia, serif" font-size="65" font-weight="700" fill="#2b2620">Cedar Fence</text>
  <text x="72" y="839" font-family="Arial, sans-serif" font-size="27" fill="rgba(43,38,32,0.62)">Lebanon, OR</text>
</svg>